<?xml version="1.0" encoding="utf-8"?>
<svg viewBox="0 0 250 250" width="250" height="250" xmlns="http://www.w3.org/2000/svg">
  <defs>
    <style>
      .cls-1 {
        fill: #202345;
      }
    </style>
  </defs>
  <path class="cls-1" d="M 166.183 249.975 C 164.532 248.64 164.46 246.753 164.447 244.867 C 164.423 240.395 164.69 235.911 164.326 231.476 C 163.95 226.919 163.501 222.227 162.081 217.927 C 160.892 214.337 158.477 211.078 156.232 207.93 C 153.028 203.446 148.247 200.885 143.562 198.276 C 143.174 198.068 142.834 197.786 142.555 197.602 C 144.266 195.997 145.88 194.417 147.579 192.959 C 147.907 192.677 148.756 192.579 149.096 192.812 C 154.302 196.291 159.605 199.697 163.392 204.879 C 164.253 206.055 165.042 207.305 165.697 208.604 C 167.008 211.164 168.258 213.773 169.447 216.395 C 169.763 217.106 169.775 217.951 169.908 218.735 C 170.37 221.418 171.11 224.101 171.219 226.796 C 171.462 232.567 171.377 238.361 171.413 244.144 C 171.413 244.953 171.268 245.773 171.304 246.57 C 171.365 247.611 171.146 248.444 170.212 249.057 C 169.969 249.216 169.92 249.681 169.787 250 L 166.146 250 L 166.183 249.975 Z"/>
  <path class="cls-1" d="M 80.325 249.975 C 78.237 248.456 78.371 246.153 78.371 243.997 C 78.383 237.908 78.189 231.795 78.674 225.731 C 79.208 219.213 81.332 212.989 84.863 207.501 C 88.249 202.245 92.545 197.725 98.115 194.637 C 98.819 194.245 99.523 193.804 100.081 193.241 C 101.161 192.15 102.023 192.346 103.018 193.388 C 104.377 194.809 105.845 196.132 107.374 197.59 C 104.899 199.035 102.229 200.285 99.935 202.037 C 97.059 204.242 93.953 206.496 91.95 209.412 C 88.492 214.46 85.895 220.095 85.737 226.453 C 85.579 232.53 85.458 238.619 85.397 244.708 C 85.373 246.68 85.252 248.554 83.65 249.963 L 80.312 249.963 L 80.325 249.975 Z"/>
  <path class="cls-1" d="M 96.95 125.076 C 96.258 137.216 88.31 146.196 76.053 146.086 C 64.112 145.976 55.423 137.572 55.168 125.137 C 54.913 113.253 63.893 104.212 76.138 104.151 C 87.594 104.089 96.622 112.653 96.95 125.076 Z M 75.458 138.564 C 78.953 138.515 82.072 138.674 84.39 136.065 C 84.451 135.991 84.572 135.979 84.645 135.905 C 86.756 133.933 89.05 132.108 89.256 128.849 C 89.305 128.114 89.79 127.415 89.851 126.68 C 89.96 125.541 89.948 124.377 89.851 123.238 C 89.802 122.662 89.268 122.123 89.268 121.559 C 89.256 120.187 88.734 119.134 87.982 117.994 C 85.021 113.523 80.919 111.367 75.628 111.514 C 74.087 111.563 72.376 111.575 71.053 112.236 C 68.298 113.596 65.896 115.458 64.172 118.215 C 61.867 121.902 61.867 128.212 64.099 131.887 C 65.786 134.668 68.602 136.028 70.81 138.147 C 70.944 138.27 71.174 138.319 71.369 138.331 C 72.873 138.417 74.39 138.49 75.458 138.552 L 75.458 138.564 Z"/>
  <path class="cls-1" d="M 152.797 125.443 C 153.283 112.775 161.911 104.089 173.828 104.175 C 185.502 104.249 194.822 112.543 194.507 125.272 C 194.204 137.608 185.976 146.013 173.707 146.123 C 162.324 146.233 153.125 136.714 152.797 125.443 Z M 174.714 138.515 C 182.675 138.895 187.966 130.87 187.529 124.5 C 187.116 118.337 181.449 110.864 173.015 111.44 C 169.35 111.697 166.377 113.167 163.744 115.397 C 160.88 117.811 159.448 121.51 159.678 124.879 C 160.2 132.377 164.678 139.164 174.714 138.515 Z"/>
  <path class="cls-1" d="M 124.728 97.523 C 123.126 97.082 121.452 96.628 119.765 96.163 C 119.522 96.102 119.291 95.955 119.049 95.918 C 114.292 95.085 111.015 92.108 108.248 88.396 C 107.374 87.22 106.367 86.105 105.7 84.818 C 105.214 83.875 105.226 82.699 104.959 81.633 C 104.753 80.788 104.474 79.942 104.195 79.109 C 103.552 77.112 103.382 75.165 104.486 73.241 C 104.802 72.69 105.178 72.004 105.093 71.44 C 104.826 69.59 105.493 68.169 106.416 66.626 C 108.649 62.889 111.379 59.728 115.335 57.805 C 119.51 55.783 123.806 55.122 128.49 55.869 C 132.64 56.531 136.22 58.283 139.109 60.978 C 142.155 63.82 145.079 67.103 144.909 71.869 C 144.885 72.445 145.055 73.119 145.383 73.584 C 146.451 75.103 146.135 76.549 145.637 78.178 C 145.116 79.844 144.97 81.621 144.582 83.336 C 144.448 83.936 144.157 84.524 143.817 85.051 C 142.895 86.497 141.888 87.906 140.965 89.351 C 139.145 92.181 136.402 94.105 133.563 95.465 C 130.966 96.714 127.835 96.849 124.728 97.523 Z M 125.019 62.46 C 118.539 62.154 110.724 68.047 110.979 76.365 C 111.221 84.304 117.532 90.037 125.08 89.976 C 132.216 89.915 138.587 84.463 138.623 76.279 C 138.66 67.985 131.33 62.142 125.019 62.472 L 125.019 62.46 Z"/>
  <path class="cls-1" d="M 146.244 173.859 C 146.026 174.46 145.735 175.195 145.492 175.942 C 145.273 176.616 144.885 177.314 144.946 177.976 C 145.237 180.916 143.538 182.986 142.191 185.314 C 140.213 188.732 137.203 190.888 133.854 192.567 C 132.009 193.498 129.874 193.914 127.835 194.368 C 122.956 195.458 118.636 193.902 114.316 191.685 C 110.129 189.529 108.103 185.584 105.481 182.092 C 105.457 178.515 102.593 175.195 104.171 171.556 C 104.923 169.817 105.093 168.15 105.226 166.374 C 105.251 166.129 105.287 165.835 105.421 165.651 C 108.03 162.062 110.214 158.08 114.389 155.948 C 115.663 155.299 116.61 153.976 118.406 154.613 C 119.012 154.833 119.983 154.307 120.675 153.939 C 123.502 152.432 126.257 152.506 129.121 153.915 C 130.092 154.392 131.318 154.368 132.41 154.601 C 132.932 154.711 133.502 154.784 133.951 155.042 C 138.283 157.455 141.778 160.775 144.193 165.124 C 144.691 166.031 144.594 167.268 144.849 168.334 C 145.116 169.474 145.492 170.601 145.783 171.74 C 145.953 172.365 146.05 173.014 146.22 173.872 L 146.244 173.859 Z M 124.716 187.568 C 132.458 187.679 138.672 182.08 138.599 173.933 C 138.514 165.308 132.519 160.248 125.032 160.175 C 117.289 160.089 110.979 165.651 111.064 173.933 C 111.136 181.357 116.258 187.519 124.716 187.568 Z"/>
  <path class="cls-1" d="M 197.553 142.582 C 199.106 145.351 200.587 148.059 202.152 150.705 C 202.577 151.428 203.293 151.979 203.863 152.628 C 207.443 156.659 211.569 160.003 216.727 161.682 C 220.052 162.772 223.523 163.691 226.993 164.01 C 231.957 164.463 236.981 164.304 241.969 164.389 C 243.437 164.414 244.905 164.389 246.362 164.426 C 248.801 164.487 249.808 165.565 249.82 168.052 C 249.82 170.392 248.752 171.544 246.41 171.544 C 239.893 171.568 233.365 171.581 226.848 171.544 C 225.95 171.544 225.064 171.287 224.166 171.115 C 222.928 170.882 221.69 170.405 220.452 170.429 C 218.074 170.466 216.084 169.535 214.009 168.567 C 208.851 166.153 203.973 163.36 200.016 159.183 C 198.948 158.055 197.917 156.855 197.031 155.581 C 195.526 153.425 194.131 151.183 192.759 148.941 C 192.565 148.622 192.577 147.912 192.796 147.667 C 194.288 145.976 195.866 144.359 197.529 142.595 L 197.553 142.582 Z"/>
  <path class="cls-1" d="M 52.328 142.46 C 53.906 144.138 55.447 145.67 56.855 147.324 C 57.158 147.679 57.219 148.598 56.976 149.014 C 53.457 154.846 49.731 160.567 43.809 164.279 C 41.091 165.982 38.166 167.379 35.254 168.751 C 30.666 170.907 25.667 171.36 20.727 171.568 C 15.024 171.801 9.308 171.63 3.592 171.63 C 1.153 171.63 -0.024 170.356 0.024 167.783 C 0.061 165.553 1.238 164.438 3.592 164.438 C 9.005 164.414 14.417 164.5 19.817 164.389 C 27.196 164.23 34.246 162.368 40.217 158.08 C 44.392 155.091 48.238 151.415 50.338 146.392 C 50.896 145.057 51.661 143.795 52.328 142.497 L 52.328 142.46 Z"/>
  <path class="cls-1" d="M 52.231 107.569 C 50.787 104.935 49.367 102.325 47.923 99.716 C 47.705 99.324 47.438 98.956 47.122 98.638 C 45.69 97.204 44.234 95.795 42.802 94.362 C 38.894 90.454 34.076 88.089 28.798 86.987 C 24.283 86.056 19.672 85.419 14.987 85.651 C 11.153 85.835 7.306 85.676 3.459 85.615 C 1.044 85.578 -0.012 84.414 0 81.988 C 0 79.673 1.189 78.497 3.58 78.485 C 9.49 78.46 15.412 78.436 21.322 78.485 C 22.912 78.485 24.477 78.595 25.934 79.575 C 26.977 80.273 28.215 80.592 29.671 80.102 C 30.885 79.697 32.256 79.771 33.555 80.653 C 34.914 81.584 36.516 82.172 38.057 82.797 C 41.285 84.12 43.906 86.338 46.746 88.261 C 51.466 91.458 54.1 96.249 57.109 100.794 C 57.376 101.198 57.389 102.178 57.085 102.521 C 55.593 104.212 53.966 105.792 52.219 107.569 L 52.231 107.569 Z"/>
  <path class="cls-1" d="M 142.591 52.623 C 145.019 51.177 147.446 49.78 149.824 48.298 C 150.71 47.747 151.523 47.048 152.288 46.338 C 153.174 45.517 153.89 44.463 154.848 43.753 C 157.676 41.658 159.229 38.669 160.746 35.642 C 162.384 32.396 163.04 28.941 163.646 25.339 C 164.86 18.197 164.132 11.055 164.375 3.924 C 164.484 0.641 166.134 -0.596 169.289 0.359 C 170.649 0.776 171.498 1.597 171.486 3.067 C 171.437 9.866 171.668 16.69 171.195 23.453 C 170.734 30.166 168.719 36.659 165.127 42.344 C 161.887 47.477 158.04 52.243 152.494 55.207 C 151.341 55.82 150.285 56.629 149.193 57.351 C 148.477 57.829 147.907 57.841 147.227 57.143 C 145.735 55.575 144.133 54.117 142.591 52.61 L 142.591 52.623 Z"/>
  <path class="cls-1" d="M 107.314 52.561 C 105.409 54.338 103.528 56.09 101.574 57.915 C 100.603 57.278 99.656 56.604 98.673 56.016 C 93.54 52.929 89.196 48.959 85.81 44.01 C 84.73 42.442 83.965 40.653 83.079 38.95 C 82.655 38.142 82.363 37.26 81.89 36.488 C 80.385 34.013 80.045 31.232 79.402 28.463 C 77.448 20.01 78.674 11.471 78.286 2.981 C 78.225 1.731 78.856 1.033 79.9 0.506 C 82.655 -0.866 85.373 0.666 85.397 3.716 C 85.446 8.849 85.179 13.995 85.494 19.103 C 85.761 23.318 86.065 27.716 87.46 31.636 C 88.989 35.924 91.319 39.93 94.559 43.483 C 98.127 47.404 102.484 49.817 106.938 52.243 C 107.059 52.304 107.156 52.426 107.314 52.561 Z"/>
  <path class="cls-1" d="M 197.516 107.605 C 195.854 105.829 194.204 104.138 192.638 102.362 C 192.456 102.154 192.529 101.48 192.723 101.186 C 194.58 98.282 196.485 95.416 198.402 92.549 C 198.645 92.181 199.033 91.887 199.373 91.593 C 201.376 89.89 203.281 88.04 205.429 86.521 C 207.48 85.076 209.749 83.936 211.958 82.748 C 213.632 81.841 215.307 80.91 217.091 80.273 C 218.171 79.881 219.445 80.028 220.634 79.942 C 221.557 79.869 222.71 80.138 223.377 79.685 C 224.979 78.607 226.739 78.558 228.462 78.521 C 234.432 78.436 240.391 78.46 246.362 78.509 C 249.226 78.534 250.937 81.792 249.456 84.292 C 248.813 85.382 247.769 85.627 246.592 85.627 C 241.592 85.627 236.58 85.578 231.581 85.7 C 223.802 85.896 216.205 87.244 209.822 91.961 C 205.671 95.024 201.849 98.687 199.592 103.599 C 198.985 104.935 198.257 106.209 197.541 107.593 L 197.516 107.605 Z"/>
  <path class="cls-1" d="M 121.136 134.092 C 121.136 132.879 121.063 131.654 121.16 130.441 C 121.245 129.302 120.796 128.886 119.692 128.898 C 117.313 128.935 114.947 128.935 112.568 128.898 C 110.772 128.873 110.032 128.163 109.838 126.35 C 109.765 125.7 109.68 125.027 109.741 124.377 C 109.911 122.258 110.627 121.302 112.653 121.302 C 115.032 121.302 117.398 121.131 119.777 121.167 C 121.015 121.192 121.379 120.702 121.33 119.55 C 121.221 117.174 121.124 114.785 121.1 112.396 C 121.075 110.558 123.175 109.223 124.922 109.847 C 125.76 110.141 126.67 110.215 127.495 110.521 C 128.636 110.95 128.757 112.004 128.733 113.045 C 128.696 115.177 128.696 117.308 128.563 119.44 C 128.478 120.886 129.133 121.327 130.456 121.278 C 132.58 121.204 134.703 121.155 136.815 121.18 C 139.242 121.204 139.849 121.731 140.14 124.144 C 140.237 124.929 140.177 125.762 140.043 126.546 C 139.776 128.138 138.963 128.849 137.361 128.873 C 135.092 128.91 132.81 128.873 130.541 128.873 C 128.648 128.886 128.551 128.996 128.599 130.834 C 128.648 132.965 128.721 135.097 128.769 137.229 C 128.806 138.686 127.738 140.169 126.318 140.365 C 124.765 140.573 123.138 140.585 121.937 139.311 C 121.585 138.932 121.391 138.27 121.354 137.731 C 121.27 136.518 121.33 135.293 121.33 134.08 C 121.27 134.08 121.209 134.08 121.148 134.08 L 121.136 134.092 Z"/>
  <path class="cls-1" d="M 22.038 193.02 C 22.645 192.175 23.021 191.415 23.604 190.888 C 24.186 190.362 24.975 190.055 25.679 189.676 C 26.759 189.1 27.802 189.271 28.531 190.202 C 29.611 191.587 30.63 193.032 31.516 194.552 C 32.147 195.642 31.2 197.357 29.805 197.994 C 27.111 199.244 25.739 198.864 24.04 196.34 C 23.361 195.323 22.766 194.257 22.026 193.02 L 22.038 193.02 Z"/>
  <path class="cls-1" d="M 58.651 36.806 C 58.153 37.309 57.704 37.86 57.17 38.313 C 56.333 39.036 55.435 39.685 54.561 40.371 C 52.874 41.707 51.09 41.302 49.561 39.232 C 48.372 37.627 48.615 35.912 50.192 34.748 C 51.284 33.94 52.365 33.094 53.493 32.335 C 53.881 32.077 54.428 31.857 54.864 31.906 C 55.957 32.053 58.384 35.348 58.651 36.794 L 58.651 36.806 Z"/>
  <path class="cls-1" d="M 51.782 224.91 C 50.933 224.444 50.059 224.028 49.258 223.501 C 48.505 222.999 47.814 222.398 47.122 221.81 C 45.957 220.842 45.739 219.568 46.576 218.306 C 47.11 217.51 47.571 216.456 48.336 216.077 C 49.136 215.685 50.471 215.611 51.212 216.04 C 52.619 216.873 53.796 218.123 55.022 219.25 C 55.326 219.532 55.605 219.985 55.665 220.389 C 55.932 222.031 53.614 224.603 51.806 224.885 L 51.782 224.91 Z"/>
  <path class="cls-1" d="M 201.072 43.912 C 199.725 43.924 195.987 41.584 195.611 40.286 C 195.405 39.575 195.453 38.632 195.769 37.97 C 196.206 37.027 196.837 36.022 197.674 35.483 C 198.317 35.067 199.64 34.944 200.223 35.336 C 201.715 36.341 202.977 37.688 204.276 38.95 C 204.531 39.195 204.652 39.661 204.676 40.028 C 204.786 41.891 202.917 43.875 201.072 43.9 L 201.072 43.912 Z"/>
  <path class="cls-1" d="M 195.502 226.123 C 194.288 226.123 192.323 224.236 192.395 222.116 C 192.407 221.577 192.772 220.928 193.172 220.561 C 194.349 219.519 195.587 218.564 196.873 217.657 C 197.965 216.885 198.948 217.326 200.211 218.98 C 202.419 221.871 202.565 222.251 201.242 223.293 C 199.786 224.456 198.633 226.221 195.49 226.11 L 195.502 226.123 Z"/>
  <path class="cls-1" d="M 38.251 203.605 C 38.433 203.728 38.979 203.997 39.416 204.401 C 40.144 205.075 40.739 205.908 41.503 206.545 C 42.899 207.709 42.96 209.792 41.54 210.943 C 39.1 212.904 37.717 212.855 35.448 210.747 C 35.229 210.539 35.023 210.319 34.817 210.086 C 33.797 208.971 32.584 207.942 33.409 206.141 C 33.967 204.916 36.164 203.617 38.251 203.617 L 38.251 203.605 Z"/>
  <path class="cls-1" d="M 66.296 234.147 C 64.197 234.196 62.51 233.13 60.956 231.93 C 59.779 231.011 59.791 229.933 60.689 228.757 C 60.92 228.438 61.126 228.083 61.26 227.715 C 61.867 225.939 63.76 225.265 65.374 226.27 C 66.32 226.858 67.267 227.433 68.201 228.022 C 69.779 229.002 70.094 230.19 69.257 231.905 C 68.52 233.424 67.53 234.172 66.284 234.147 L 66.296 234.147 Z"/>
  <path class="cls-1" d="M 227.418 67.238 C 227.685 68.855 226.205 69.161 225.052 69.713 C 223.96 70.24 222.698 70.534 221.848 69.456 C 220.671 67.961 219.676 66.319 218.669 64.69 C 218.511 64.433 218.705 63.955 218.778 63.587 C 218.802 63.452 218.948 63.342 219.045 63.232 C 220.258 61.958 221.448 60.426 223.462 60.953 C 225.185 61.407 227.479 65.18 227.418 67.238 Z"/>
  <path class="cls-1" d="M 212.674 56.175 C 212.152 55.881 211.302 55.428 210.489 54.913 C 210.247 54.766 210.089 54.46 209.882 54.24 C 206.618 50.65 207.455 50.626 210.611 47.514 C 211.496 46.644 212.698 46.889 213.62 47.722 C 214.409 48.433 215.076 49.253 215.829 50.001 C 217.018 51.177 217.176 52.524 216.557 54.031 C 215.926 55.575 214.579 55.881 212.661 56.175 L 212.674 56.175 Z"/>
  <path class="cls-1" d="M 220.817 201.106 C 217.928 200.824 215.914 198.986 216.848 196.989 C 217.734 195.078 219.324 193.498 220.671 191.832 C 220.841 191.623 221.508 191.562 221.763 191.722 C 222.989 192.506 224.214 193.302 225.27 194.282 C 225.61 194.588 225.659 195.593 225.428 196.071 C 224.736 197.467 223.947 198.852 222.977 200.052 C 222.515 200.616 221.557 200.775 220.817 201.118 L 220.817 201.106 Z"/>
  <path class="cls-1" d="M 45.338 47.649 C 44.998 48.286 44.768 49.021 44.294 49.523 C 43.36 50.515 42.304 51.397 41.273 52.292 C 40.278 53.162 39.258 53.076 38.263 52.267 C 38.069 52.108 37.875 51.949 37.681 51.777 C 35.205 49.547 35.193 48.91 37.584 46.546 C 38.093 46.044 38.615 45.566 39.088 45.039 C 39.95 44.083 40.872 43.25 42.231 43.998 C 43.639 44.77 45.18 45.492 45.338 47.636 L 45.338 47.649 Z"/>
  <path class="cls-1" d="M 209.166 214.398 C 207.358 214.447 206.133 213.296 205.392 211.74 C 205.113 211.164 205.368 210.061 205.781 209.486 C 206.533 208.432 207.589 207.587 208.523 206.656 C 210.186 205.026 211.181 205.075 212.904 206.68 C 214.057 207.758 215.016 208.898 214.106 210.502 C 213.135 212.23 210.95 214.79 209.154 214.398 L 209.166 214.398 Z"/>
  <path class="cls-1" d="M 33.36 60.769 C 33.106 63.073 31.71 64.812 30.023 66.099 C 28.688 67.116 27.244 66.05 26.079 65.094 C 25.06 64.249 24.429 63.073 25.096 61.884 C 25.982 60.328 27.074 58.822 28.361 57.596 C 28.81 57.168 30.217 57.351 30.97 57.707 C 32.171 58.27 33.433 59.042 33.348 60.769 L 33.36 60.769 Z"/>
  <path class="cls-1" d="M 186.764 33.266 C 184.677 33.205 182.99 32.188 181.619 30.754 C 181.158 30.276 180.952 29.113 181.182 28.463 C 182.323 25.278 183.197 24.126 187.116 26.368 C 187.638 26.662 188.16 26.981 188.67 27.299 C 190.029 28.133 190.357 29.37 189.956 30.84 C 189.531 32.371 188.269 33.303 186.752 33.278 L 186.764 33.266 Z"/>
  <path class="cls-1" d="M 179.847 232.126 C 180.126 230.999 180.175 229.737 180.733 228.769 C 181.692 227.103 183.658 226.956 185.005 227.617 C 186.085 228.144 186.849 229.749 187.311 231.023 C 187.711 232.126 187.493 233.424 186 233.976 C 184.738 234.441 183.585 235.286 182.299 235.544 C 180.515 235.911 180.187 235.495 180.139 233.694 C 180.126 233.191 180.139 232.689 180.139 232.175 C 180.041 232.15 179.944 232.138 179.859 232.113 L 179.847 232.126 Z"/>
  <path class="cls-1" d="M 70.519 29.051 C 70.531 30.571 68.128 31.722 65.883 30.889 C 64.451 30.362 63.456 28.819 63.396 27.054 C 63.347 25.56 64.439 24.96 65.519 24.408 C 66.539 23.881 67.594 23.416 68.675 23.024 C 69.512 22.718 70.191 22.914 70.228 24.004 C 70.228 24.102 70.228 24.2 70.24 24.31 C 70.325 25.768 70.41 27.226 70.519 29.064 L 70.519 29.051 Z"/>
  <path class="cls-1" d="M 230.258 180.009 C 231.01 180.009 231.775 179.985 232.527 180.009 C 234.141 180.083 234.457 180.548 234.032 182.129 C 233.267 184.91 231.714 186.356 229.7 186.16 C 226.957 185.902 225.61 184.261 226.047 181.774 C 226.265 180.524 226.836 179.728 228.28 179.924 C 228.923 180.009 229.59 179.936 230.246 179.936 C 230.246 179.96 230.246 179.985 230.246 179.997 L 230.258 180.009 Z"/>
  <path class="cls-1" d="M 15.072 179.96 C 17.463 179.96 19.575 179.96 21.674 179.96 C 22.681 179.96 22.79 180.634 22.39 181.296 C 21.674 182.496 20.642 183.342 19.15 183.452 C 17.718 183.562 16.553 183.293 15.958 181.786 C 15.728 181.198 15.4 180.634 15.06 179.96 L 15.072 179.96 Z"/>
</svg>