<?xml version="1.0" standalone="no"?>
<!DOCTYPE svg PUBLIC "-//W3C//DTD SVG 20010904//EN"
 "http://www.w3.org/TR/2001/REC-SVG-20010904/DTD/svg10.dtd">
<svg version="1.0" xmlns="http://www.w3.org/2000/svg"
 width="252.000000pt" height="72.000000pt" viewBox="0 0 252.000000 72.000000"
 preserveAspectRatio="xMidYMid meet">

<g transform="translate(0.000000,72.000000) scale(0.100000,-0.100000)"
fill="#000000" stroke="none">
<path d="M1194 660 l-40 -41 -57 15 c-31 8 -73 12 -94 9 -145 -22 -229 -163
-177 -294 l17 -40 -43 -44 -42 -43 27 -37 28 -36 47 46 47 46 52 -17 c109 -35
224 12 275 113 20 41 21 132 1 180 l-16 37 46 46 45 46 -28 27 c-15 15 -32 27
-38 27 -5 0 -27 -18 -50 -40z m-120 -108 c3 -5 -33 -46 -80 -93 l-84 -84 0 48
c0 58 21 101 58 121 29 16 98 21 106 8z m81 -148 c-4 -23 -20 -51 -40 -71 -27
-27 -40 -33 -77 -33 -25 0 -48 3 -52 7 -3 4 31 44 76 90 74 75 84 81 92 64 5
-11 5 -37 1 -57z"/>
<path d="M142 549 l-122 -120 19 -27 c11 -15 65 -72 120 -127 l101 -100 27 27
c23 23 24 29 13 43 -9 11 -16 13 -24 5 -7 -7 -38 17 -103 82 l-93 93 92 92
c73 73 95 90 105 81 11 -9 18 -8 29 3 12 13 11 18 -13 41 l-28 27 -123 -120z"/>
<path d="M316 551 l-120 -120 118 -125 c65 -69 121 -126 125 -126 3 0 61 55
129 123 l122 122 -119 120 c-66 66 -123 121 -128 122 -4 2 -62 -51 -127 -116z
m222 -218 l-93 -93 -92 92 -93 93 92 92 93 93 92 -92 93 -93 -92 -92z"/>
<path d="M1340 430 l0 -210 45 0 45 0 0 60 c0 61 20 110 44 110 6 0 38 -39 71
-85 l60 -85 53 0 c47 0 66 10 44 24 -5 3 -44 53 -87 111 l-78 107 89 89 89 89
-57 0 -56 0 -86 -91 -86 -92 0 92 0 91 -45 0 -45 0 0 -210z"/>
<path d="M1777 633 c-4 -3 -7 -98 -7 -210 l0 -203 45 0 44 0 3 63 3 62 75 6
c41 3 85 11 98 18 38 20 62 70 62 128 0 44 -5 58 -31 87 -17 20 -47 40 -67 46
-41 11 -215 14 -225 3z m190 -84 c33 -12 43 -26 43 -58 0 -43 -27 -61 -92 -61
l-58 0 0 58 c0 32 3 62 7 65 10 11 68 8 100 -4z"/>
<path d="M2257 508 c-104 -121 -114 -136 -110 -165 l5 -33 104 0 104 0 0 -45
0 -45 45 0 45 0 0 44 c0 41 2 45 28 48 22 2 28 8 30 36 3 30 1 32 -27 32 l-31
0 0 130 0 130 -40 0 c-38 0 -43 -4 -153 -132z m103 -63 l0 -65 -50 0 c-27 0
-50 4 -50 9 0 8 91 121 97 121 2 0 3 -29 3 -65z"/>
<path d="M816 53 c-8 -19 17 -48 33 -39 6 4 11 18 11 32 0 28 -34 34 -44 7z
m34 -13 c0 -11 -4 -20 -10 -20 -5 0 -10 9 -10 20 0 11 5 20 10 20 6 0 10 -9
10 -20z"/>
<path d="M880 39 l0 -31 24 23 c27 26 25 39 -5 39 -15 0 -19 -7 -19 -31z"/>
<path d="M950 40 c0 -25 4 -30 23 -29 16 1 18 2 5 6 -21 5 -24 23 -5 23 8 0 8
3 -2 9 -11 7 -10 10 5 14 16 4 16 5 -3 6 -19 1 -23 -4 -23 -29z"/>
<path d="M1010 38 c1 -29 2 -31 13 -16 12 15 14 15 24 0 10 -14 12 -11 12 18
1 23 -2 30 -8 21 -6 -9 -11 -10 -15 -2 -14 21 -26 11 -26 -21z"/>
<path d="M1121 35 c0 -16 3 -24 6 -17 4 10 8 10 19 1 9 -8 14 -8 14 -1 0 6 -5
14 -10 17 -8 5 -7 11 0 20 9 11 7 14 -9 12 -17 -1 -21 -8 -20 -32z"/>
<path d="M1190 45 c1 -26 2 -28 11 -12 8 14 8 22 0 30 -8 8 -11 3 -11 -18z"/>
<path d="M1216 48 c-3 -13 -1 -27 4 -32 7 -7 10 1 10 22 0 37 -5 41 -14 10z"/>
<path d="M1256 53 c-8 -19 17 -48 33 -39 6 4 11 18 11 32 0 28 -34 34 -44 7z
m34 -7 c0 -8 -4 -18 -10 -21 -5 -3 -10 3 -10 14 0 12 5 21 10 21 6 0 10 -6 10
-14z"/>
<path d="M1324 57 c3 -10 6 -26 6 -35 1 -15 3 -14 15 2 13 17 15 18 15 3 0 -9
5 -17 10 -17 6 0 10 6 10 14 0 8 3 23 6 33 5 15 4 16 -5 3 -9 -12 -12 -13 -20
-1 -6 10 -10 10 -16 1 -6 -9 -10 -9 -17 1 -7 11 -8 9 -4 -4z"/>
<path d="M1411 43 c-1 -28 3 -33 21 -33 19 0 20 1 6 13 -9 6 -18 21 -21 32 -3
13 -5 8 -6 -12z"/>
<path d="M1477 63 c-11 -24 0 -48 23 -50 14 -1 18 0 8 3 -21 6 -24 24 -5 24 9
0 8 3 -2 9 -11 7 -11 9 0 14 10 4 9 6 -3 6 -9 1 -19 -2 -21 -6z"/>
<path d="M1540 39 c0 -24 4 -30 18 -27 10 2 18 14 20 31 3 22 -1 27 -17 27
-17 0 -21 -6 -21 -31z m30 1 c0 -11 -4 -20 -10 -20 -5 0 -10 9 -10 20 0 11 5
20 10 20 6 0 10 -9 10 -20z"/>
<path d="M1612 43 c2 -17 9 -28 18 -28 9 0 15 11 17 28 1 21 -3 27 -18 27 -16
0 -20 -6 -17 -27z m24 -3 c0 -11 -4 -20 -8 -20 -4 0 -8 9 -8 20 0 11 4 20 8
20 4 0 8 -9 8 -20z"/>
<path d="M1672 43 c2 -19 10 -29 23 -31 15 -2 17 -1 6 6 -7 6 -10 15 -7 21 4
6 1 11 -6 12 -7 0 -4 4 7 9 19 8 19 9 -3 9 -20 1 -23 -3 -20 -26z"/>
<path d="M1771 38 c1 -18 3 -25 6 -15 2 9 11 17 19 17 8 0 14 7 14 15 0 8 -9
15 -20 15 -16 0 -20 -6 -19 -32z"/>
<path d="M1839 68 c-5 -21 -4 -50 3 -54 4 -3 8 3 8 12 0 17 1 17 13 0 11 -16
13 -14 11 11 0 17 -7 29 -17 31 -10 2 -17 2 -18 0z"/>
<path d="M1904 55 c-8 -21 3 -48 19 -43 19 7 22 58 2 58 -8 0 -18 -7 -21 -15z
m26 -16 c0 -11 -4 -17 -10 -14 -5 3 -10 13 -10 21 0 8 5 14 10 14 6 0 10 -9
10 -21z"/>
<path d="M1979 38 c5 -30 6 -31 9 -8 2 14 9 28 16 32 7 5 3 8 -10 8 -18 0 -20
-5 -15 -32z"/>
<path d="M2032 43 c2 -17 9 -28 18 -28 9 0 16 11 18 28 3 22 -1 27 -18 27 -17
0 -21 -5 -18 -27z m28 -4 c0 -11 -4 -17 -10 -14 -5 3 -10 13 -10 21 0 8 5 14
10 14 6 0 10 -9 10 -21z"/>
<path d="M2100 46 c0 -29 17 -43 33 -27 9 9 8 11 -5 6 -14 -6 -18 -2 -18 15 0
16 4 20 15 16 8 -3 15 -1 15 4 0 6 -9 10 -20 10 -15 0 -20 -7 -20 -24z"/>
<path d="M2164 56 c-9 -24 4 -48 23 -44 12 2 18 12 18 28 0 29 -32 41 -41 16z
m36 -10 c0 -8 -4 -18 -10 -21 -5 -3 -10 3 -10 14 0 12 5 21 10 21 6 0 10 -6
10 -14z"/>
<path d="M2231 43 c-1 -28 3 -33 21 -33 19 0 20 1 6 13 -9 6 -18 21 -21 32 -3
13 -5 8 -6 -12z"/>
<path d="M2331 38 c0 -18 3 -26 6 -18 3 8 11 18 17 22 7 5 6 8 -4 9 -10 0 -8
3 5 9 19 8 19 9 -2 9 -20 1 -23 -4 -22 -31z"/>
<path d="M2392 43 c2 -17 9 -28 18 -28 9 0 16 11 18 28 3 22 -1 27 -18 27 -17
0 -21 -5 -18 -27z m28 -3 c0 -11 -4 -20 -10 -20 -5 0 -10 9 -10 20 0 11 5 20
10 20 6 0 10 -9 10 -20z"/>
<path d="M2461 38 c1 -19 3 -25 6 -15 4 17 6 17 16 3 10 -14 12 -12 14 14 2
24 -2 30 -17 30 -16 0 -20 -6 -19 -32z"/>
</g>
</svg>
