<?xml version="1.0" encoding="utf-8"?>
<svg viewBox="0 0 250 250" width="250" height="250" xmlns="http://www.w3.org/2000/svg">
  <defs>
    <style>
      .cls-1 {
        fill: none;
      }

      .cls-2 {
        fill: #212246;
      }
    </style>
  </defs>
  <path class="cls-2" d="M 88.146 145.255 C 87.693 144.569 87.119 143.938 86.821 143.197 C 85.882 140.873 84.965 138.527 84.213 136.137 C 83.893 135.119 83.992 133.957 83.882 132.862 C 83.595 130.029 82.081 127.363 82.655 124.408 C 82.899 123.158 83.153 121.907 83.385 120.657 C 83.672 119.086 84.092 117.514 84.18 115.932 C 84.379 112.646 85.948 109.901 87.34 107.08 C 88.191 105.365 88.931 103.55 90.091 102.067 C 92.046 99.544 94.344 97.298 96.399 94.841 C 99.526 91.112 103.758 89.076 108.011 87.085 C 110.055 86.122 112.154 85.237 114.297 84.573 C 115.259 84.274 116.408 84.661 117.457 84.606 C 118.385 84.551 119.457 84.562 120.186 84.097 C 122.307 82.747 124.639 82.725 126.915 82.968 C 128.55 83.145 130.085 84.108 131.72 84.562 C 132.394 84.75 133.179 84.462 133.919 84.451 C 134.858 84.429 135.908 84.219 136.736 84.54 C 139.421 85.569 141.995 86.852 144.658 87.937 C 149.585 89.962 153.353 93.491 157.164 97.088 C 160.457 100.197 162.081 104.192 164.191 107.954 C 164.721 108.905 165.119 109.946 165.638 110.908 C 167.086 113.553 166.71 116.53 167.24 119.34 C 167.417 120.27 167.87 121.144 168.036 122.062 C 168.5 124.596 168.632 127.108 167.749 129.642 C 167.24 131.08 167.097 132.685 167.008 134.234 C 166.865 136.702 166.29 139.048 165.163 141.227 C 164.103 143.308 162.622 145.211 161.838 147.38 C 159.904 152.735 155.43 155.911 151.585 159.53 C 149.42 161.566 146.337 162.628 143.63 164.055 C 141.907 164.963 140.139 165.815 138.327 166.556 C 137.543 166.877 136.637 166.899 135.775 167.01 C 132.295 167.474 128.815 168.017 125.313 168.315 C 123.788 168.448 122.252 168.492 120.716 167.519 C 119.777 166.921 118.242 167.242 116.971 167.176 C 115.093 167.087 113.38 166.755 111.646 165.77 C 108.696 164.088 105.503 162.794 102.399 161.377 C 100.277 160.415 98.565 158.921 97.029 157.217 C 94.676 154.594 92.356 151.95 90.069 149.283 C 89.771 148.929 89.715 148.376 89.538 147.911 C 89.395 147.546 89.273 147.17 89.086 146.826 C 88.798 146.295 88.456 145.797 88.135 145.277 C 88.135 145.266 88.157 145.244 88.169 145.233 L 88.146 145.255 Z M 120.716 160.271 C 121.578 160.525 122.562 160.913 123.578 161.079 C 124.672 161.256 125.81 161.333 126.903 161.245 C 128.218 161.134 129.522 160.802 130.837 160.581 C 131.765 160.426 132.991 160.603 133.566 160.072 C 134.416 159.286 135.333 159.33 136.261 159.076 C 137.786 158.655 139.41 158.368 140.758 157.593 C 143.155 156.199 145.277 154.329 147.685 152.968 C 150.392 151.43 152.303 149.294 153.717 146.594 C 153.994 146.074 154.347 145.576 154.734 145.122 C 158.402 140.763 159.562 135.507 160.302 130.051 C 160.49 128.657 161.175 127.34 161.573 125.968 C 161.672 125.625 161.606 125.183 161.473 124.829 C 161.252 124.231 160.799 123.711 160.667 123.102 C 160.059 120.192 159.606 117.249 158.932 114.361 C 158.623 113.055 158.092 111.749 157.396 110.598 C 155.629 107.71 153.739 104.889 151.828 102.089 C 151.298 101.315 150.624 100.551 149.862 100.02 C 146.856 97.929 143.829 95.87 140.725 93.934 C 139.631 93.248 138.316 92.883 137.057 92.507 C 135.974 92.186 134.825 92.075 133.709 91.821 C 132.582 91.566 131.466 91.245 130.339 90.98 C 129.157 90.703 127.975 90.426 126.793 90.183 C 126.119 90.05 125.412 89.796 124.771 89.917 C 123.269 90.194 121.81 90.681 120.33 91.046 C 118.65 91.466 116.949 91.787 115.292 92.274 C 113.513 92.794 111.679 93.259 110.055 94.111 C 108.122 95.129 106.354 96.479 104.586 97.785 C 102.752 99.135 100.686 100.341 99.283 102.056 C 97.029 104.811 95.206 107.91 93.284 110.919 C 92.731 111.782 92.312 112.8 92.08 113.807 C 91.196 117.625 90.411 121.465 89.616 125.293 C 89.561 125.581 89.693 125.913 89.771 126.223 C 90.467 129.244 91.163 132.253 91.848 135.274 C 91.881 135.407 91.881 135.551 91.87 135.684 C 91.715 137.731 92.599 139.391 93.715 141.017 C 95.505 143.618 97.129 146.329 98.94 148.918 C 99.714 150.024 100.653 151.109 101.736 151.872 C 104.73 153.975 107.856 155.878 110.906 157.903 C 112.088 158.689 113.369 159.009 114.761 159.087 C 115.435 159.131 116.319 159.087 116.739 159.474 C 117.888 160.514 119.092 160.769 120.716 160.26 L 120.716 160.271 Z"/>
  <path class="cls-2" d="M 199.335 30.895 C 204.848 30.983 209.765 32.754 213.698 36.649 C 215.366 38.297 216.449 40.51 217.907 42.38 C 218.857 43.609 219.244 44.914 219.277 46.43 C 219.299 47.194 219.498 47.991 219.808 48.688 C 220.68 50.68 220.725 52.638 220.095 54.718 C 219.642 56.223 219.576 57.861 219.112 59.355 C 218.78 60.406 218.095 61.369 217.51 62.32 C 216.99 63.172 216.305 63.925 215.808 64.799 C 214.118 67.798 211.654 69.767 208.505 71.162 C 207.047 71.803 205.434 71.836 204.141 72.5 C 202.186 73.507 200.219 73.585 198.186 73.474 C 197.148 73.419 196.131 72.932 195.104 72.633 C 194.618 72.5 194.143 72.279 193.646 72.235 C 190.475 71.958 188.066 70.121 185.669 68.318 C 184.741 67.621 184.023 66.614 183.315 65.662 C 182.089 64.013 180.929 62.309 179.78 60.605 C 179.504 60.207 179.316 59.709 179.217 59.233 C 178.907 57.706 178.764 56.146 178.377 54.652 C 177.935 52.959 177.935 51.321 178.377 49.639 C 178.664 48.533 178.962 47.404 178.996 46.275 C 179.073 43.896 180.819 42.447 181.934 40.654 C 182.896 39.116 183.857 37.423 185.227 36.306 C 189.304 33.008 193.844 30.673 199.324 30.872 L 199.335 30.895 Z M 204.594 52.195 C 203.545 50.934 202.738 49.839 201.799 48.865 C 200.451 47.459 199.291 47.249 197.877 47.957 C 195.811 48.998 194.264 50.978 194.85 52.527 C 195.347 53.833 196.408 55.084 197.523 55.969 C 198.893 57.053 200.352 56.81 201.633 55.593 C 202.672 54.597 203.545 53.424 204.594 52.207 L 204.594 52.195 Z"/>
  <path class="cls-2" d="M 51.478 73.861 C 50.174 73.441 48.87 73.009 47.555 72.6 C 47.169 72.478 46.749 72.423 46.351 72.334 C 41.379 71.272 37.468 68.694 34.806 64.301 C 34.496 63.792 34.154 63.294 33.745 62.874 C 32.43 61.501 31.613 59.941 31.502 58.005 C 31.469 57.33 31.248 56.655 31.038 56.002 C 30.232 53.424 30.298 50.868 31.127 48.312 C 31.348 47.614 31.337 46.851 31.591 46.176 C 32.022 45.025 32.441 43.83 33.093 42.801 C 34.364 40.798 35.469 38.53 37.203 37.014 C 42.794 32.112 49.202 29.81 56.747 31.769 C 59.686 32.532 62.294 33.761 64.724 35.531 C 67.254 37.357 68.68 40.068 70.447 42.502 C 71.419 43.841 71.85 45.291 71.895 46.962 C 71.917 47.891 72.292 48.854 72.668 49.728 C 73.298 51.211 73.22 52.638 72.823 54.154 C 72.392 55.814 72.226 57.551 71.74 59.2 C 71.442 60.218 70.812 61.147 70.226 62.055 C 69.42 63.327 68.47 64.511 67.663 65.784 C 66.083 68.296 63.73 69.712 61.145 71.04 C 58.813 72.235 56.317 72.677 53.886 73.408 C 53.157 73.629 52.35 73.574 51.577 73.64 C 51.544 73.729 51.511 73.817 51.466 73.906 L 51.478 73.861 Z M 56.063 52.317 C 56.063 50.259 53.731 47.614 51.875 47.603 C 49.986 47.603 47.058 50.303 47.069 52.052 C 47.08 53.988 49.765 56.588 51.754 56.577 C 53.698 56.577 56.04 54.254 56.051 52.317 L 56.063 52.317 Z"/>
  <path class="cls-2" d="M 50.572 220.677 C 48.274 220.843 45.257 219.493 42.208 218.054 C 38.827 216.461 36.717 213.75 34.53 210.851 C 32.673 208.394 32.044 205.727 31.193 202.95 C 30.21 199.73 31.337 196.82 31.569 193.766 C 31.756 191.387 33.281 189.904 34.364 188.1 C 36.01 185.367 37.921 182.866 40.86 181.395 C 42.948 180.343 44.904 179.027 47.489 179.237 C 49.423 179.392 51.422 178.706 53.345 178.883 C 55.819 179.104 58.327 179.558 60.681 180.355 C 64.205 181.539 66.945 183.895 68.867 187.149 C 69.42 188.089 70.215 188.908 70.657 189.893 C 72.314 193.611 73.673 197.406 72.911 201.589 C 72.568 203.47 72.182 205.34 71.674 207.177 C 71.475 207.885 70.889 208.483 70.447 209.102 C 68.58 211.681 67.188 214.657 64.426 216.527 C 60.592 219.117 56.416 220.633 50.583 220.688 L 50.572 220.677 Z M 56.063 199.476 C 56.129 197.373 53.897 194.883 51.853 194.773 C 49.931 194.662 47.014 197.406 47.014 199.321 C 47.014 200.837 50.428 204.057 52.074 204.09 C 53.245 204.112 56.018 200.903 56.063 199.476 Z"/>
  <path class="cls-2" d="M 198.242 220.655 C 195.656 220.865 192.717 219.504 189.757 218.154 C 186.276 216.56 184.089 213.761 181.846 210.795 C 180.045 208.416 179.393 205.871 178.576 203.16 C 177.57 199.83 178.808 196.842 178.996 193.699 C 179.139 191.409 180.675 190.026 181.702 188.299 C 183.327 185.555 185.161 183.01 188.11 181.516 C 190.287 180.41 192.309 179.016 195.004 179.292 C 196.419 179.436 197.932 178.639 199.335 178.805 C 202.429 179.193 205.578 179.646 208.538 180.587 C 211.345 181.472 213.687 183.331 215.366 185.887 C 216.438 187.536 217.598 189.118 218.725 190.723 C 218.802 190.833 218.891 190.955 218.913 191.077 C 219.686 195.459 221.896 199.774 219.476 204.3 C 219.31 204.61 219.178 205.008 219.211 205.351 C 219.355 206.878 218.714 208.04 217.808 209.202 C 215.908 211.647 214.626 214.591 211.963 216.417 C 208.074 219.083 203.821 220.644 198.242 220.655 Z M 204.23 199.343 C 203.611 198.391 203.114 197.351 202.385 196.521 C 200.087 193.91 196.463 194.574 195.115 197.783 C 194.209 199.951 195.203 201.7 198.871 204.068 C 200.33 205.008 200.915 203.404 201.799 202.784 C 202.351 202.397 202.849 201.877 203.235 201.323 C 203.622 200.792 203.843 200.139 204.23 199.332 L 204.23 199.343 Z"/>
  <path class="cls-2" d="M 125.379 43.022 C 124.44 42.724 123.07 42.226 121.667 41.871 C 120.794 41.65 119.866 41.584 118.96 41.573 C 117.822 41.551 116.761 41.429 116.021 40.433 C 115.966 40.367 115.888 40.3 115.811 40.256 C 111.734 38.142 108.972 34.69 106.464 30.994 C 106 30.308 105.746 29.445 105.558 28.637 C 105.238 27.309 104.984 25.959 104.807 24.598 C 104.619 23.116 104.376 21.611 104.509 20.139 C 104.675 18.236 105.061 16.333 105.603 14.496 C 105.923 13.4 106.696 12.438 107.315 11.442 C 107.989 10.357 108.818 9.35 109.414 8.233 C 110.386 6.418 112.176 5.61 113.745 4.526 C 114.828 3.784 115.844 2.8 117.037 2.379 C 118.717 1.782 120.551 1.56 122.33 1.239 C 123.169 1.085 124.208 1.538 124.517 0.166 C 124.55 0.022 126.097 -0.122 126.307 0.166 C 127.29 1.582 128.76 1.118 130.03 1.361 C 131.555 1.649 133.101 1.461 134.383 2.877 C 135.311 3.895 136.836 4.382 138.139 5.024 C 141.023 6.462 142.305 9.306 144.105 11.696 C 145.188 13.135 145.652 14.739 145.619 16.543 C 145.608 17.207 145.829 17.937 146.149 18.512 C 147.376 20.759 146.901 22.939 146.039 25.13 C 145.818 25.672 145.564 26.258 145.553 26.823 C 145.553 28.493 145.188 29.888 144.172 31.359 C 141.763 34.867 139.41 38.308 135.422 40.234 C 134.902 40.488 134.494 40.953 134.018 41.307 C 133.919 41.385 133.753 41.385 133.621 41.407 C 131.069 41.894 128.528 42.392 125.39 42.989 L 125.379 43.022 Z M 129.478 21.622 C 129.776 18.313 127.787 17.328 125.058 17.373 C 122.595 17.417 121.324 18.623 121.324 21.046 C 121.324 24.543 122.263 25.672 125.191 25.683 C 128.693 25.694 129.467 24.964 129.467 21.622 L 129.478 21.622 Z"/>
  <path class="cls-2" d="M 42.727 125.736 C 42.241 127.318 41.755 128.901 41.28 130.494 C 41.147 130.926 40.938 131.39 40.993 131.811 C 41.247 133.747 40.197 135.097 39.104 136.469 C 38.628 137.067 38.242 137.753 37.866 138.428 C 36.474 140.873 34.231 142.345 31.944 143.828 C 30.331 144.879 28.84 145.897 26.741 145.842 C 25.481 145.808 24.211 146.528 22.918 146.705 C 21.813 146.849 20.642 146.804 19.526 146.638 C 17.968 146.417 16.433 146.041 14.908 145.665 C 14.002 145.443 13.03 145.255 12.245 144.79 C 10.555 143.795 8.688 142.876 7.384 141.482 C 4.578 138.483 1.584 135.518 0.987 131.103 C 0.855 130.107 0.623 129.122 0.402 128.148 C 0.291 127.661 -0.04 127.163 0.004 126.699 C 0.38 123.257 0.313 119.705 2.335 116.629 C 3.075 115.489 3.904 114.383 4.467 113.155 C 5.373 111.218 6.998 110.101 8.655 108.961 C 9.859 108.131 11.03 107.212 12.334 106.571 C 13.372 106.062 14.577 105.896 15.715 105.608 C 16.908 105.32 18.101 104.999 19.316 104.822 C 20.421 104.667 21.581 104.524 22.686 104.679 C 24.619 104.955 26.52 105.453 28.431 105.863 C 28.696 105.918 29.017 105.907 29.226 106.051 C 32.618 108.385 36.728 109.879 38.551 114.04 C 38.64 114.239 38.816 114.416 38.949 114.593 C 40.032 116.065 40.971 117.503 41.17 119.473 C 41.379 121.52 42.164 123.512 42.749 125.714 L 42.727 125.736 Z M 16.797 125.57 C 16.764 128.336 17.747 129.742 19.714 129.753 C 24.166 129.797 25.172 129.111 25.205 126.013 C 25.238 122.682 24.409 121.719 21.78 121.564 C 18.399 121.354 16.377 122.627 16.797 125.57 Z"/>
  <path class="cls-2" d="M 208.483 125.636 C 208.925 123.6 209.444 121.52 209.798 119.407 C 210.03 118.023 210.395 116.762 211.356 115.689 C 211.93 115.047 212.416 114.305 212.825 113.542 C 214.372 110.687 217.09 109.105 219.565 107.246 C 221.078 106.106 222.636 105.464 224.591 105.542 C 225.685 105.586 226.801 104.988 227.928 104.856 C 229.077 104.723 230.281 104.645 231.419 104.8 C 233.22 105.044 234.988 105.508 236.778 105.874 C 237.131 105.951 237.54 105.929 237.827 106.106 C 240.07 107.522 242.512 108.728 244.445 110.499 C 246.014 111.926 246.964 114.029 248.19 115.832 C 248.389 116.131 248.61 116.43 248.754 116.762 C 249.185 117.747 249.881 118.72 249.925 119.727 C 250.069 123.047 249.859 126.389 249.991 129.708 C 250.113 132.663 248.953 135.009 247.141 137.189 C 246.588 137.852 246.18 138.638 245.738 139.38 C 244.379 141.648 242.026 142.732 239.993 144.182 C 238.689 145.111 237.341 145.797 235.595 145.797 C 234.27 145.797 232.966 146.483 231.629 146.649 C 230.48 146.793 229.154 146.981 228.138 146.561 C 226.47 145.875 224.801 145.72 223.056 145.62 C 222.293 145.576 221.476 145.277 220.835 144.868 C 219.134 143.784 217.488 142.633 215.897 141.404 C 215.145 140.829 214.527 140.066 213.941 139.302 C 212.77 137.775 211.665 136.204 210.538 134.644 C 210.406 134.455 210.251 134.256 210.207 134.046 C 209.632 131.28 209.08 128.502 208.494 125.603 L 208.483 125.636 Z M 229.895 129.664 C 231.32 129.664 232.856 129.863 233.507 128.159 C 233.817 127.34 233.927 126.411 233.927 125.537 C 233.927 122.494 233.076 121.653 230.049 121.642 C 228.801 121.642 227.453 121.42 226.492 122.582 C 225.354 123.965 225.685 125.57 225.752 127.152 C 225.807 128.469 226.669 129.122 227.729 129.487 C 228.392 129.719 229.176 129.62 229.895 129.675 L 229.895 129.664 Z"/>
  <path class="cls-2" d="M 116.584 248.351 C 116.043 248.13 115.502 247.92 114.96 247.676 C 110.806 245.784 108.663 241.967 106.21 238.459 C 105.934 238.06 105.702 237.574 105.592 237.098 C 105.172 235.183 104.73 233.258 104.454 231.311 C 104.299 230.204 104.343 229.042 104.498 227.936 C 104.697 226.442 105.271 224.992 105.326 223.498 C 105.437 220.976 107.569 219.703 108.497 217.711 C 109.978 214.558 113.027 213.174 115.579 211.205 C 116.894 210.187 118.087 209.678 119.788 209.977 C 120.529 210.109 121.512 209.501 122.23 209.003 C 123.335 208.25 127.301 208.261 128.45 209.136 C 129.566 209.977 130.726 210.552 132.229 210.065 C 133.124 209.777 134.03 209.899 134.726 210.718 C 134.98 211.028 135.355 211.249 135.72 211.437 C 139.609 213.429 142.15 216.704 144.448 220.323 C 145.188 221.496 145.409 222.602 145.52 223.875 C 145.597 224.682 145.73 225.546 146.083 226.254 C 147.188 228.489 146.967 230.658 146.16 232.904 C 145.774 233.999 145.796 235.239 145.442 236.345 C 145.089 237.441 144.592 238.514 143.995 239.499 C 143.111 240.993 142.15 242.453 141.1 243.837 C 140.504 244.622 139.686 245.264 138.924 245.906 C 138.438 246.315 137.808 246.57 137.344 247.001 C 134.637 249.568 131.234 250 127.776 250 C 124.628 250 121.479 249.768 118.341 249.502 C 117.7 249.447 117.115 248.827 116.496 248.473 C 116.518 248.418 116.54 248.373 116.573 248.318 L 116.584 248.351 Z M 129.467 229.784 C 129.677 226.043 128.019 225.634 125.39 225.634 C 122.042 225.634 121.247 226.718 121.335 231.023 C 121.368 232.638 122.871 233.922 124.594 233.955 C 127.975 234.033 129.842 232.959 129.467 229.773 L 129.467 229.784 Z"/>
  <path class="cls-2" d="M 196.408 129.454 C 194.485 129.376 192.485 127.363 192.53 125.548 C 192.563 124.131 195.004 121.885 196.485 121.918 C 197.866 121.952 200.219 124.331 200.197 125.681 C 200.175 127.152 197.811 129.509 196.419 129.454 L 196.408 129.454 Z"/>
  <path class="cls-2" d="M 54.825 129.432 C 53.312 129.432 50.87 127.141 50.848 125.692 C 50.826 124.275 53.234 121.907 54.681 121.907 C 56.239 121.907 58.559 124.242 58.548 125.791 C 58.537 127.219 56.283 129.421 54.825 129.421 L 54.825 129.432 Z"/>
  <path class="cls-2" d="M 82.678 86.974 C 82.667 85.347 85.009 83.001 86.622 83.024 C 88.191 83.046 90.312 85.303 90.29 86.93 C 90.268 88.412 88.135 90.448 86.555 90.482 C 85.13 90.515 82.678 88.302 82.678 86.974 Z"/>
  <path class="cls-2" d="M 168.312 87.007 C 168.312 88.18 165.738 90.493 164.379 90.548 C 162.965 90.603 160.755 88.435 160.733 86.974 C 160.711 85.259 162.843 83.035 164.511 83.046 C 166.069 83.046 168.312 85.392 168.312 87.007 Z"/>
  <path class="cls-2" d="M 90.279 164.431 C 90.312 166.147 88.323 168.26 86.644 168.282 C 85.009 168.304 82.733 166.147 82.678 164.509 C 82.633 163.214 85.097 160.791 86.511 160.747 C 87.903 160.702 90.246 162.993 90.279 164.42 L 90.279 164.431 Z"/>
  <path class="cls-2" d="M 125.478 184.338 C 123.865 184.283 121.667 182.07 121.722 180.576 C 121.799 178.85 123.92 176.924 125.666 177.013 C 127.235 177.09 129.29 179.16 129.279 180.653 C 129.279 182.092 126.892 184.393 125.478 184.349 L 125.478 184.338 Z"/>
  <path class="cls-2" d="M 125.456 58.735 C 123.843 58.669 121.645 56.445 121.733 54.951 C 121.821 53.213 123.965 51.31 125.699 51.41 C 127.257 51.498 129.312 53.59 129.29 55.072 C 129.268 56.522 126.892 58.801 125.467 58.746 L 125.456 58.735 Z"/>
  <path class="cls-2" d="M 125.578 192.626 C 127.036 192.637 129.323 194.85 129.279 196.211 C 129.224 197.882 127.102 199.973 125.478 199.962 C 123.832 199.962 121.722 197.849 121.711 196.2 C 121.711 194.651 123.909 192.604 125.567 192.615 L 125.578 192.626 Z"/>
  <path class="cls-2" d="M 129.29 70.619 C 129.235 72.346 127.025 74.459 125.357 74.37 C 123.699 74.282 121.645 72.069 121.733 70.475 C 121.821 68.871 124.119 66.968 125.865 67.045 C 127.135 67.101 129.334 69.402 129.29 70.63 L 129.29 70.619 Z"/>
  <path class="cls-2" d="M 164.589 168.304 C 162.81 168.304 160.689 166.124 160.733 164.354 C 160.766 163.093 163.285 160.813 164.578 160.868 C 165.937 160.935 168.356 163.402 168.323 164.686 C 168.29 166.102 166.003 168.315 164.589 168.315 L 164.589 168.304 Z"/>
  <path class="cls-2" d="M 180.509 129.432 C 178.852 129.41 176.885 127.241 176.952 125.515 C 177.007 124.154 179.073 121.952 180.321 121.94 C 181.835 121.929 184.42 124.264 184.376 125.614 C 184.321 127.351 182.189 129.454 180.509 129.432 Z"/>
  <path class="cls-2" d="M 70.315 129.432 C 68.58 129.332 66.625 127.152 66.713 125.415 C 66.779 123.954 69.387 121.841 70.955 121.974 C 72.104 122.073 74.071 124.441 74.027 125.67 C 73.972 127.385 71.861 129.52 70.315 129.432 Z"/>
  <path class="cls-2" d="M 175.736 72.213 C 177.924 72.213 179.084 73.253 179.095 75.256 C 179.117 77.635 177.825 79.018 175.56 79.04 C 173.273 79.062 172.124 77.922 172.091 75.632 C 172.057 73.419 173.328 72.224 175.736 72.224 L 175.736 72.213 Z"/>
  <path class="cls-2" d="M 75.275 72.268 C 77.452 72.268 78.711 73.441 78.711 75.444 C 78.711 77.967 77.695 79.062 75.353 79.051 C 72.69 79.04 71.917 78.265 71.906 75.621 C 71.906 73.485 73.121 72.268 75.286 72.257 L 75.275 72.268 Z"/>
  <path class="cls-2" d="M 71.939 175.685 C 71.961 173.782 73.309 172.288 74.955 172.332 C 77.562 172.41 78.844 173.516 78.833 175.707 C 78.833 177.942 77.54 179.237 75.342 179.237 C 73.342 179.237 71.651 177.743 71.939 175.696 L 71.939 175.685 Z"/>
  <path class="cls-2" d="M 179.427 175.464 C 179.128 177.002 178.189 178.706 177.261 179.016 C 175.67 179.547 173.67 179.126 172.996 178.119 C 172.079 176.769 172.035 174.468 172.919 173.328 C 173.052 173.151 173.262 172.908 173.427 172.908 C 175.007 172.952 176.631 172.83 178.123 173.217 C 178.719 173.372 179.007 174.678 179.438 175.464 L 179.427 175.464 Z"/>
  <path class="cls-2" d="M 136.46 125.537 C 136.836 131.811 131.919 137.111 125.843 137 C 119.932 136.89 114.596 133.349 114.397 125.758 C 114.242 119.672 118.673 114.671 125.346 114.449 C 130.527 114.283 136.814 118.3 136.46 125.537 Z M 125.335 129.941 C 125.368 129.83 125.412 129.708 125.445 129.598 C 127.003 129.631 128.693 129.885 129.257 127.86 C 129.445 127.174 129.411 126.422 129.456 125.703 C 129.665 122.549 128.494 121.321 125.257 121.653 C 124.296 121.752 123.191 121.841 122.44 122.372 C 120.838 123.501 120.683 127.484 122.208 128.712 C 123.037 129.387 124.274 129.553 125.335 129.952 L 125.335 129.941 Z"/>
</svg>