<?xml version="1.0" encoding="utf-8"?>
<svg viewBox="0 0 250 250" width="250" height="250" xmlns="http://www.w3.org/2000/svg">
  <defs>
    <style>
      .cls-1 {
        fill: #202345;
      }
    </style>
  </defs>
  <path class="cls-1" d="M 249.988 95.084 C 248.177 98.894 244.382 100.078 241.007 101.767 C 236.227 104.172 231.188 106.021 225.965 107.02 C 219.016 108.351 211.957 109.276 204.837 108.031 C 203.334 107.772 201.769 107.809 200.291 107.451 C 197.149 106.687 194.057 105.701 190.916 104.924 C 186.173 103.74 181.984 101.323 177.685 99.141 C 175.787 98.179 174.469 96.958 174.518 94.579 C 174.654 88.093 174.038 81.533 174.9 75.146 C 175.738 68.895 178.633 63.137 182.588 58.032 C 185.36 54.444 188.846 51.781 192.628 49.426 C 193.429 48.933 194.106 48.23 194.858 47.613 C 179.298 33.446 184.731 14.877 194.39 6.603 C 205.169 -2.644 220.421 -2.114 230.72 7.787 C 240.342 17.035 242.818 35.715 228.884 47.675 C 230.338 48.674 231.718 49.685 233.172 50.585 C 240.908 55.431 245.651 62.508 248.226 71.102 C 248.854 73.174 248.916 75.418 249.298 77.575 C 249.409 78.217 249.754 78.809 250 79.425 L 250 95.072 L 249.988 95.084 Z M 239.073 83.531 L 238.999 83.531 C 238.999 81.336 239.147 79.129 238.949 76.947 C 238.814 75.504 238.247 74.086 237.791 72.68 C 234.169 61.719 224.24 54.161 212.376 54 C 203.272 53.877 195.585 57.588 190.053 65.011 C 188.218 67.477 186.518 70.19 185.495 73.05 C 184.411 76.084 184.004 79.376 184.263 82.705 C 184.423 84.727 184.214 86.786 184.103 88.821 C 183.98 90.917 184.337 91.607 186.296 92.495 C 191.285 94.764 196.447 96.404 201.892 97.193 C 207.781 98.044 213.682 98.265 219.583 97.624 C 226.014 96.921 232.137 95.06 237.915 92.125 C 238.432 91.854 239.011 91.114 239.036 90.559 C 239.159 88.216 239.085 85.874 239.085 83.531 L 239.073 83.531 Z M 228.453 27.922 C 228.724 19.229 221.949 10.635 212.204 10.549 C 204.516 10.475 195.979 15.567 195.178 26.936 C 194.612 34.963 202.508 43.211 211.157 43.581 C 215.592 43.766 219.62 42.336 222.946 39.352 C 226.47 36.183 228.737 32.349 228.453 27.922 Z"/>
  <path class="cls-1" d="M 203.395 250 C 205.293 249.766 207.177 249.531 209.075 249.285 C 209.075 249.186 209.087 249.088 209.099 248.989 C 208.471 248.915 207.855 248.779 207.227 248.792 C 202.73 248.841 198.246 248.644 193.897 247.398 C 191.507 246.72 189.191 245.795 186.863 244.957 C 185.581 244.488 184.275 244.069 183.068 243.453 C 180.851 242.318 178.707 241.048 176.514 239.877 C 175.024 239.075 174.617 237.744 174.531 236.178 C 174.174 229.236 173.521 222.183 175.085 215.414 C 177.512 204.983 182.957 196.327 192.591 190.865 C 192.899 190.692 193.219 190.507 193.503 190.31 C 194.895 189.36 194.87 188.892 193.626 187.77 C 190.866 185.279 188.612 182.32 187.183 178.929 C 184.928 173.566 184.411 167.783 185.729 162.222 C 187.244 155.884 190.793 150.582 196.201 146.6 C 200.18 143.665 204.615 142.136 209.395 141.433 C 211.625 141.113 213.892 140.693 216.047 142.099 C 216.7 142.531 217.858 142.099 218.721 142.321 C 224.031 143.653 228.466 146.489 231.964 150.631 C 237.594 157.314 239.91 164.91 238.025 173.677 C 237.028 178.288 235.143 182.369 232.1 185.92 C 231.471 186.648 230.794 187.375 230.005 187.918 C 228.946 188.645 229.131 189.262 229.919 189.965 C 230.178 190.199 230.498 190.384 230.806 190.556 C 239.208 195.341 244.937 202.307 247.844 211.53 C 248.3 212.973 248.362 214.539 248.706 216.018 C 249.076 217.646 249.544 219.249 249.963 220.864 L 249.963 236.511 C 249.027 237.707 248.337 239.334 247.117 240 C 243.249 242.121 239.282 244.131 235.18 245.709 C 229.192 248.015 222.934 249.162 216.466 248.767 C 215.924 248.73 215.37 248.89 214.816 248.952 C 214.816 249.063 214.84 249.186 214.852 249.297 C 216.959 249.531 219.053 249.766 221.16 249.988 L 203.383 249.988 L 203.395 250 Z M 212.869 238.952 C 214.655 238.952 217.452 239.248 220.162 238.891 C 226.347 238.077 232.309 236.351 237.878 233.441 C 238.395 233.169 238.974 232.454 238.999 231.924 C 239.159 229.174 239.085 226.425 239.196 223.663 C 239.344 220.038 238.777 216.585 237.52 213.182 C 233.985 203.602 224.634 196.056 213.768 195.378 C 205.699 194.872 198.64 197.585 192.813 203.281 C 189.795 206.228 187.208 209.594 185.815 213.552 C 184.855 216.289 184.583 219.31 184.312 222.233 C 184.066 224.76 184.337 227.337 184.202 229.89 C 184.054 232.639 184.152 233.021 186.678 234.082 C 194.747 237.46 203.063 239.692 212.881 238.965 L 212.869 238.952 Z M 228.441 168.424 C 228.65 163.738 226.47 160.039 223.464 156.76 C 220.322 153.344 216.183 151.618 211.674 151.852 C 202.459 152.308 195.351 159.201 195.117 168.818 C 195.018 173.183 197.063 176.882 200.143 179.965 C 202.927 182.751 206.5 184.145 210.011 185.649 C 219.103 184.909 228.626 179.558 228.429 168.424 L 228.441 168.424 Z"/>
  <path class="cls-1" d="M 68.287 116.292 C 70.135 117.451 71.749 118.585 73.474 119.523 C 79.042 122.556 83.724 126.711 87.567 131.618 C 91.177 136.23 93.838 141.458 95.366 147.253 C 97.632 155.921 97.694 164.712 97.448 173.553 C 97.398 175.131 97.386 176.722 97.3 178.3 C 97.189 180.384 96.364 182.024 94.368 182.936 C 90.487 184.7 86.57 186.401 82.726 188.263 C 77.318 190.877 71.601 192.443 65.75 193.614 C 56.461 195.488 47.049 195.525 37.71 194.564 C 32.499 194.034 27.374 192.443 22.274 191.099 C 15.252 189.249 8.883 185.785 2.538 182.369 C 0.863 181.469 -0.024 179.755 0 177.906 C 0.111 170.606 0.222 163.307 0.604 156.02 C 0.875 150.903 2.378 145.983 4.472 141.322 C 7.91 133.69 13.071 127.365 19.786 122.371 C 21.855 120.83 24.184 119.634 26.377 118.24 C 27.313 117.648 28.188 116.97 29.259 116.206 C 18.985 108.401 13.712 98.265 14.784 85.528 C 15.622 75.64 20.278 67.489 28.151 61.324 C 40.507 51.645 62.263 51.189 75.186 66.663 C 81.383 74.086 84.019 83.05 82.541 92.853 C 81.1 102.445 76.702 110.337 68.275 116.28 L 68.287 116.292 Z M 10.546 165.206 L 10.484 165.206 C 10.484 168.325 10.447 171.445 10.509 174.564 C 10.509 175.082 10.792 175.822 11.187 176.056 C 12.271 176.697 13.466 177.191 14.661 177.597 C 19.515 179.274 24.368 180.988 29.284 182.493 C 31.551 183.183 33.953 183.516 36.306 183.861 C 39.817 184.367 43.353 184.749 46.888 185.168 C 47.135 185.193 47.394 185.218 47.64 185.181 C 49.66 184.946 51.668 184.65 53.689 184.465 C 56.584 184.194 59.541 184.28 62.374 183.726 C 70.431 182.135 78.365 180.1 85.658 176.106 C 86.853 175.452 87.247 174.762 87.247 173.516 C 87.21 168.917 87.272 164.318 87.198 159.719 C 87.112 153.467 85.165 147.611 82.332 142.222 C 78.821 135.527 73.228 130.644 66.501 127.143 C 60.169 123.85 53.406 122.457 46.297 122.975 C 42.022 123.283 37.821 124.159 33.83 125.774 C 27.251 128.425 22.028 132.962 17.716 138.375 C 13.17 144.072 11.039 150.89 10.571 158.165 C 10.423 160.508 10.546 162.863 10.546 165.218 L 10.546 165.206 Z M 25.231 88.475 C 25.231 88.475 25.132 88.475 25.083 88.475 C 25.231 90.608 24.911 92.89 25.588 94.838 C 28.138 102.137 32.82 107.723 40.076 110.756 C 48.034 114.085 55.549 112.79 62.559 108.056 C 70.16 102.914 74.25 93.099 72.205 84.172 C 70.468 76.564 66.403 70.572 59.048 67.132 C 54.428 64.986 49.734 64.062 44.683 64.937 C 41.061 65.566 37.969 67.292 35.062 69.351 C 28.988 73.667 25.034 79.252 25.231 87.094 C 25.231 87.551 25.231 88.019 25.231 88.475 Z"/>
  <path class="cls-1" d="M 150.015 60.128 C 149.017 58.513 148.142 57.329 147.526 56.035 C 146.134 53.15 148.487 49.512 151.703 49.376 C 153.551 49.303 154.967 49.783 156.31 51.201 C 158.811 53.828 161.558 56.195 164.17 58.723 C 165.045 59.574 165.858 60.511 166.585 61.485 C 168.679 64.321 168.507 66.873 166.067 69.364 C 162.815 72.693 159.587 76.034 156.273 79.289 C 154.586 80.954 152.639 81.817 150.175 80.707 C 147.428 79.474 145.629 75.825 148.266 72.952 C 148.968 72.187 149.571 71.349 150.397 70.325 C 149.744 70.227 149.448 70.116 149.177 70.165 C 146.233 70.708 143.276 71.213 140.344 71.842 C 138.607 72.212 136.833 72.545 135.219 73.26 C 128.419 76.269 122.099 80.066 116.802 85.393 C 115.508 86.687 114.362 88.142 113.217 89.573 C 110.593 92.877 108.141 93.21 104.827 90.658 C 103.016 89.264 102.844 85.787 104.396 84.098 C 106.921 81.361 109.176 78.34 111.898 75.825 C 117.455 70.683 123.935 66.873 131.018 64.234 C 134 63.125 137.301 62.841 140.295 61.731 C 143.338 60.597 146.43 60.276 150.04 60.128 L 150.015 60.128 Z"/>
  <path class="cls-1" d="M 150.261 179.583 C 149.362 178.313 148.426 177.228 147.761 175.995 C 146.615 173.923 147.28 171.321 149.177 169.891 C 150.914 168.572 154.031 168.658 155.583 170.138 C 158.836 173.233 161.99 176.426 165.291 179.472 C 168.925 182.838 168.494 186.303 165.587 189.299 C 162.322 192.665 159.082 196.068 155.768 199.397 C 153.76 201.407 149.436 200.556 147.761 198.238 C 146.085 195.932 146.8 193.799 148.475 192.073 C 148.758 191.777 149.066 191.494 149.251 191.136 C 149.658 190.384 149.51 189.866 148.549 189.78 C 147.884 189.718 147.218 189.484 146.578 189.558 C 143.104 190.002 139.975 188.485 136.735 187.77 C 133.913 187.141 131.289 185.686 128.554 184.638 C 123.848 182.825 119.45 180.384 115.656 177.141 C 111.874 173.911 108.597 170.101 105.024 166.611 C 103.792 165.403 103.25 164.121 103.435 162.407 C 103.706 159.817 105.616 158.276 108.252 158.067 C 110.58 157.882 111.972 159.028 113.254 160.57 C 119.352 167.881 126.756 173.455 135.626 176.907 C 140.098 178.646 144.865 179.324 149.633 179.805 C 149.756 179.817 149.904 179.706 150.274 179.558 L 150.261 179.583 Z"/>
</svg>